solid I
  color 0.5 0.5 1
  facet normal 1.000000e+00 0.000000e+00 0.000000e+00
    outer loop
      vertex 1.055319e+04 2.214803e+03 1.538893e+04
      vertex 1.055319e+04 2.214803e+03 1.061107e+04
      vertex 1.055319e+04 2.562625e+03 1.525242e+04
    endloop
  endfacet
  facet normal 1.000000e+00 0.000000e+00 0.000000e+00
    outer loop
      vertex 1.055319e+04 3.970925e+03 1.281318e+04
      vertex 1.055319e+04 3.970925e+03 1.318682e+04
      vertex 1.055319e+04 3.915235e+03 1.355630e+04
    endloop
  endfacet
  facet normal 1.000000e+00 0.000000e+00 0.000000e+00
    outer loop
      vertex 1.055319e+04 3.970925e+03 1.281318e+04
      vertex 1.055319e+04 3.915235e+03 1.355630e+04
      vertex 1.055319e+04 3.915235e+03 1.244370e+04
    endloop
  endfacet
  facet normal 1.000000e+00 0.000000e+00 0.000000e+00
    outer loop
      vertex 1.055319e+04 3.915235e+03 1.355630e+04
      vertex 1.055319e+04 3.805100e+03 1.208665e+04
      vertex 1.055319e+04 3.915235e+03 1.244370e+04
    endloop
  endfacet
  facet normal 1.000000e+00 0.000000e+00 0.000000e+00
    outer loop
      vertex 1.055319e+04 3.805100e+03 1.391335e+04
      vertex 1.055319e+04 3.805100e+03 1.208665e+04
      vertex 1.055319e+04 3.915235e+03 1.355630e+04
    endloop
  endfacet
  facet normal 1.000000e+00 0.000000e+00 0.000000e+00
    outer loop
      vertex 1.055319e+04 3.642979e+03 1.175000e+04
      vertex 1.055319e+04 3.805100e+03 1.208665e+04
      vertex 1.055319e+04 3.805100e+03 1.391335e+04
    endloop
  endfacet
  facet normal 1.000000e+00 0.000000e+00 0.000000e+00
    outer loop
      vertex 1.055319e+04 3.642979e+03 1.175000e+04
      vertex 1.055319e+04 3.805100e+03 1.391335e+04
      vertex 1.055319e+04 3.642979e+03 1.425000e+04
    endloop
  endfacet
  facet normal 1.000000e+00 0.000000e+00 0.000000e+00
    outer loop
      vertex 1.055319e+04 3.642979e+03 1.175000e+04
      vertex 1.055319e+04 3.642979e+03 1.425000e+04
      vertex 1.055319e+04 3.432494e+03 1.455873e+04
    endloop
  endfacet
  facet normal 1.000000e+00 0.000000e+00 0.000000e+00
    outer loop
      vertex 1.055319e+04 3.642979e+03 1.175000e+04
      vertex 1.055319e+04 3.432494e+03 1.455873e+04
      vertex 1.055319e+04 3.432494e+03 1.144127e+04
    endloop
  endfacet
  facet normal 1.000000e+00 0.000000e+00 0.000000e+00
    outer loop
      vertex 1.055319e+04 3.432494e+03 1.455873e+04
      vertex 1.055319e+04 3.178347e+03 1.116737e+04
      vertex 1.055319e+04 3.432494e+03 1.144127e+04
    endloop
  endfacet
  facet normal 1.000000e+00 0.000000e+00 0.000000e+00
    outer loop
      vertex 1.055319e+04 3.178347e+03 1.483263e+04
      vertex 1.055319e+04 3.178347e+03 1.116737e+04
      vertex 1.055319e+04 3.432494e+03 1.455873e+04
    endloop
  endfacet
  facet normal 1.000000e+00 0.000000e+00 0.000000e+00
    outer loop
      vertex 1.055319e+04 2.886215e+03 1.506560e+04
      vertex 1.055319e+04 3.178347e+03 1.116737e+04
      vertex 1.055319e+04 3.178347e+03 1.483263e+04
    endloop
  endfacet
  facet normal 1.000000e+00 0.000000e+00 0.000000e+00
    outer loop
      vertex 1.055319e+04 2.886215e+03 1.093440e+04
      vertex 1.055319e+04 3.178347e+03 1.116737e+04
      vertex 1.055319e+04 2.886215e+03 1.506560e+04
    endloop
  endfacet
  facet normal 1.000000e+00 0.000000e+00 0.000000e+00
    outer loop
      vertex 1.055319e+04 2.886215e+03 1.093440e+04
      vertex 1.055319e+04 2.886215e+03 1.506560e+04
      vertex 1.055319e+04 2.562625e+03 1.525242e+04
    endloop
  endfacet
  facet normal 1.000000e+00 0.000000e+00 0.000000e+00
    outer loop
      vertex 1.055319e+04 2.886215e+03 1.093440e+04
      vertex 1.055319e+04 2.562625e+03 1.525242e+04
      vertex 1.055319e+04 2.562625e+03 1.074758e+04
    endloop
  endfacet
  facet normal 1.000000e+00 0.000000e+00 0.000000e+00
    outer loop
      vertex 1.055319e+04 2.562625e+03 1.525242e+04
      vertex 1.055319e+04 2.214803e+03 1.061107e+04
      vertex 1.055319e+04 2.562625e+03 1.074758e+04
    endloop
  endfacet
  facet normal 1.000000e+00 0.000000e+00 0.000000e+00
    outer loop
      vertex 1.055319e+04 2.214803e+03 1.538893e+04
      vertex 1.055319e+04 1.850521e+03 1.052792e+04
      vertex 1.055319e+04 2.214803e+03 1.061107e+04
    endloop
  endfacet
  facet normal 1.000000e+00 0.000000e+00 0.000000e+00
    outer loop
      vertex 1.055319e+04 1.850521e+03 1.547208e+04
      vertex 1.055319e+04 1.850521e+03 1.052792e+04
      vertex 1.055319e+04 2.214803e+03 1.538893e+04
    endloop
  endfacet
  facet normal 1.000000e+00 0.000000e+00 0.000000e+00
    outer loop
      vertex 1.055319e+04 1.477915e+03 1.550000e+04
      vertex 1.055319e+04 1.850521e+03 1.052792e+04
      vertex 1.055319e+04 1.850521e+03 1.547208e+04
    endloop
  endfacet
  facet normal 1.000000e+00 0.000000e+00 0.000000e+00
    outer loop
      vertex 1.055319e+04 1.477915e+03 1.050000e+04
      vertex 1.055319e+04 1.850521e+03 1.052792e+04
      vertex 1.055319e+04 1.477915e+03 1.550000e+04
    endloop
  endfacet
  facet normal 1.000000e+00 0.000000e+00 0.000000e+00
    outer loop
      vertex 1.055319e+04 -2.225170e+02 1.116737e+04
      vertex 1.055319e+04 6.961500e+01 1.093440e+04
      vertex 1.055319e+04 3.932060e+02 1.074758e+04
    endloop
  endfacet
  facet normal 1.000000e+00 0.000000e+00 0.000000e+00
    outer loop
      vertex 1.055319e+04 -2.225170e+02 1.116737e+04
      vertex 1.055319e+04 3.932060e+02 1.074758e+04
      vertex 1.055319e+04 -4.766640e+02 1.144127e+04
    endloop
  endfacet
  facet normal 1.000000e+00 0.000000e+00 0.000000e+00
    outer loop
      vertex 1.055319e+04 3.932060e+02 1.074758e+04
      vertex 1.055319e+04 -6.871480e+02 1.175000e+04
      vertex 1.055319e+04 -4.766640e+02 1.144127e+04
    endloop
  endfacet
  facet normal 1.000000e+00 0.000000e+00 0.000000e+00
    outer loop
      vertex 1.055319e+04 -8.492690e+02 1.208665e+04
      vertex 1.055319e+04 -6.871480e+02 1.175000e+04
      vertex 1.055319e+04 3.932060e+02 1.074758e+04
    endloop
  endfacet
  facet normal 1.000000e+00 0.000000e+00 0.000000e+00
    outer loop
      vertex 1.055319e+04 -8.492690e+02 1.208665e+04
      vertex 1.055319e+04 3.932060e+02 1.074758e+04
      vertex 1.055319e+04 -9.594050e+02 1.244370e+04
    endloop
  endfacet
  facet normal 1.000000e+00 0.000000e+00 0.000000e+00
    outer loop
      vertex 1.055319e+04 3.932060e+02 1.074758e+04
      vertex 1.055319e+04 -1.015094e+03 1.281318e+04
      vertex 1.055319e+04 -9.594050e+02 1.244370e+04
    endloop
  endfacet
  facet normal 1.000000e+00 0.000000e+00 0.000000e+00
    outer loop
      vertex 1.055319e+04 -1.015094e+03 1.318682e+04
      vertex 1.055319e+04 -1.015094e+03 1.281318e+04
      vertex 1.055319e+04 3.932060e+02 1.074758e+04
    endloop
  endfacet
  facet normal 1.000000e+00 0.000000e+00 0.000000e+00
    outer loop
      vertex 1.055319e+04 -1.015094e+03 1.318682e+04
      vertex 1.055319e+04 3.932060e+02 1.074758e+04
      vertex 1.055319e+04 -9.594050e+02 1.355630e+04
    endloop
  endfacet
  facet normal 1.000000e+00 0.000000e+00 0.000000e+00
    outer loop
      vertex 1.055319e+04 3.932060e+02 1.074758e+04
      vertex 1.055319e+04 -8.492690e+02 1.391335e+04
      vertex 1.055319e+04 -9.594050e+02 1.355630e+04
    endloop
  endfacet
  facet normal 1.000000e+00 0.000000e+00 0.000000e+00
    outer loop
      vertex 1.055319e+04 -6.871480e+02 1.425000e+04
      vertex 1.055319e+04 -8.492690e+02 1.391335e+04
      vertex 1.055319e+04 3.932060e+02 1.074758e+04
    endloop
  endfacet
  facet normal 1.000000e+00 0.000000e+00 0.000000e+00
    outer loop
      vertex 1.055319e+04 -6.871480e+02 1.425000e+04
      vertex 1.055319e+04 3.932060e+02 1.074758e+04
      vertex 1.055319e+04 -4.766640e+02 1.455873e+04
    endloop
  endfacet
  facet normal 1.000000e+00 0.000000e+00 0.000000e+00
    outer loop
      vertex 1.055319e+04 3.932060e+02 1.074758e+04
      vertex 1.055319e+04 -2.225170e+02 1.483263e+04
      vertex 1.055319e+04 -4.766640e+02 1.455873e+04
    endloop
  endfacet
  facet normal 1.000000e+00 0.000000e+00 0.000000e+00
    outer loop
      vertex 1.055319e+04 6.961500e+01 1.506560e+04
      vertex 1.055319e+04 -2.225170e+02 1.483263e+04
      vertex 1.055319e+04 3.932060e+02 1.074758e+04
    endloop
  endfacet
  facet normal 1.000000e+00 0.000000e+00 0.000000e+00
    outer loop
      vertex 1.055319e+04 6.961500e+01 1.506560e+04
      vertex 1.055319e+04 3.932060e+02 1.074758e+04
      vertex 1.055319e+04 7.410270e+02 1.061107e+04
    endloop
  endfacet
  facet normal 1.000000e+00 0.000000e+00 0.000000e+00
    outer loop
      vertex 1.055319e+04 6.961500e+01 1.506560e+04
      vertex 1.055319e+04 7.410270e+02 1.061107e+04
      vertex 1.055319e+04 3.932060e+02 1.525242e+04
    endloop
  endfacet
  facet normal 1.000000e+00 0.000000e+00 0.000000e+00
    outer loop
      vertex 1.055319e+04 7.410270e+02 1.061107e+04
      vertex 1.055319e+04 7.410270e+02 1.538893e+04
      vertex 1.055319e+04 3.932060e+02 1.525242e+04
    endloop
  endfacet
  facet normal 1.000000e+00 0.000000e+00 0.000000e+00
    outer loop
      vertex 1.055319e+04 1.105310e+03 1.052792e+04
      vertex 1.055319e+04 7.410270e+02 1.538893e+04
      vertex 1.055319e+04 7.410270e+02 1.061107e+04
    endloop
  endfacet
  facet normal 1.000000e+00 0.000000e+00 0.000000e+00
    outer loop
      vertex 1.055319e+04 1.105310e+03 1.547208e+04
      vertex 1.055319e+04 7.410270e+02 1.538893e+04
      vertex 1.055319e+04 1.105310e+03 1.052792e+04
    endloop
  endfacet
  facet normal 1.000000e+00 0.000000e+00 0.000000e+00
    outer loop
      vertex 1.055319e+04 1.105310e+03 1.547208e+04
      vertex 1.055319e+04 1.105310e+03 1.052792e+04
      vertex 1.055319e+04 1.477915e+03 1.050000e+04
    endloop
  endfacet
  facet normal 1.000000e+00 0.000000e+00 0.000000e+00
    outer loop
      vertex 1.055319e+04 1.105310e+03 1.547208e+04
      vertex 1.055319e+04 1.477915e+03 1.050000e+04
      vertex 1.055319e+04 1.477915e+03 1.550000e+04
    endloop
  endfacet
  facet normal -1.000000e+00 0.000000e+00 0.000000e+00
    outer loop
      vertex 1.030319e+04 -8.492690e+02 1.391335e+04
      vertex 1.030319e+04 -9.594050e+02 1.244370e+04
      vertex 1.030319e+04 -9.594050e+02 1.355630e+04
    endloop
  endfacet
  facet normal -1.000000e+00 0.000000e+00 0.000000e+00
    outer loop
      vertex 1.030319e+04 -6.871480e+02 1.425000e+04
      vertex 1.030319e+04 -8.492690e+02 1.208665e+04
      vertex 1.030319e+04 -8.492690e+02 1.391335e+04
    endloop
  endfacet
  facet normal -1.000000e+00 0.000000e+00 0.000000e+00
    outer loop
      vertex 1.030319e+04 -4.766640e+02 1.455873e+04
      vertex 1.030319e+04 -6.871480e+02 1.175000e+04
      vertex 1.030319e+04 -6.871480e+02 1.425000e+04
    endloop
  endfacet
  facet normal -1.000000e+00 0.000000e+00 0.000000e+00
    outer loop
      vertex 1.030319e+04 -2.225170e+02 1.483263e+04
      vertex 1.030319e+04 -4.766640e+02 1.144127e+04
      vertex 1.030319e+04 -4.766640e+02 1.455873e+04
    endloop
  endfacet
  facet normal -1.000000e+00 0.000000e+00 0.000000e+00
    outer loop
      vertex 1.030319e+04 7.410270e+02 1.538893e+04
      vertex 1.030319e+04 7.410270e+02 1.061107e+04
      vertex 1.030319e+04 3.932060e+02 1.525242e+04
    endloop
  endfacet
  facet normal -1.000000e+00 0.000000e+00 0.000000e+00
    outer loop
      vertex 1.030319e+04 1.105310e+03 1.547208e+04
      vertex 1.030319e+04 1.105310e+03 1.052792e+04
      vertex 1.030319e+04 7.410270e+02 1.538893e+04
    endloop
  endfacet
  facet normal -1.000000e+00 0.000000e+00 0.000000e+00
    outer loop
      vertex 1.030319e+04 -1.015094e+03 1.318682e+04
      vertex 1.030319e+04 -9.594050e+02 1.355630e+04
      vertex 1.030319e+04 -1.015094e+03 1.281318e+04
    endloop
  endfacet
  facet normal -1.000000e+00 0.000000e+00 0.000000e+00
    outer loop
      vertex 1.030319e+04 -9.594050e+02 1.355630e+04
      vertex 1.030319e+04 -9.594050e+02 1.244370e+04
      vertex 1.030319e+04 -1.015094e+03 1.281318e+04
    endloop
  endfacet
  facet normal -1.000000e+00 0.000000e+00 0.000000e+00
    outer loop
      vertex 1.030319e+04 -8.492690e+02 1.391335e+04
      vertex 1.030319e+04 -8.492690e+02 1.208665e+04
      vertex 1.030319e+04 -9.594050e+02 1.244370e+04
    endloop
  endfacet
  facet normal -1.000000e+00 0.000000e+00 0.000000e+00
    outer loop
      vertex 1.030319e+04 -6.871480e+02 1.425000e+04
      vertex 1.030319e+04 -6.871480e+02 1.175000e+04
      vertex 1.030319e+04 -8.492690e+02 1.208665e+04
    endloop
  endfacet
  facet normal -1.000000e+00 0.000000e+00 0.000000e+00
    outer loop
      vertex 1.030319e+04 -4.766640e+02 1.455873e+04
      vertex 1.030319e+04 -4.766640e+02 1.144127e+04
      vertex 1.030319e+04 -6.871480e+02 1.175000e+04
    endloop
  endfacet
  facet normal -1.000000e+00 0.000000e+00 0.000000e+00
    outer loop
      vertex 1.030319e+04 -2.225170e+02 1.483263e+04
      vertex 1.030319e+04 -2.225170e+02 1.116737e+04
      vertex 1.030319e+04 -4.766640e+02 1.144127e+04
    endloop
  endfacet
  facet normal -1.000000e+00 0.000000e+00 0.000000e+00
    outer loop
      vertex 1.030319e+04 6.961500e+01 1.093440e+04
      vertex 1.030319e+04 -2.225170e+02 1.116737e+04
      vertex 1.030319e+04 -2.225170e+02 1.483263e+04
    endloop
  endfacet
  facet normal -1.000000e+00 0.000000e+00 0.000000e+00
    outer loop
      vertex 1.030319e+04 6.961500e+01 1.093440e+04
      vertex 1.030319e+04 -2.225170e+02 1.483263e+04
      vertex 1.030319e+04 6.961500e+01 1.506560e+04
    endloop
  endfacet
  facet normal -1.000000e+00 0.000000e+00 0.000000e+00
    outer loop
      vertex 1.030319e+04 6.961500e+01 1.093440e+04
      vertex 1.030319e+04 6.961500e+01 1.506560e+04
      vertex 1.030319e+04 3.932060e+02 1.525242e+04
    endloop
  endfacet
  facet normal -1.000000e+00 0.000000e+00 0.000000e+00
    outer loop
      vertex 1.030319e+04 6.961500e+01 1.093440e+04
      vertex 1.030319e+04 3.932060e+02 1.525242e+04
      vertex 1.030319e+04 3.932060e+02 1.074758e+04
    endloop
  endfacet
  facet normal -1.000000e+00 0.000000e+00 0.000000e+00
    outer loop
      vertex 1.030319e+04 3.932060e+02 1.525242e+04
      vertex 1.030319e+04 7.410270e+02 1.061107e+04
      vertex 1.030319e+04 3.932060e+02 1.074758e+04
    endloop
  endfacet
  facet normal -1.000000e+00 0.000000e+00 0.000000e+00
    outer loop
      vertex 1.030319e+04 7.410270e+02 1.538893e+04
      vertex 1.030319e+04 1.105310e+03 1.052792e+04
      vertex 1.030319e+04 7.410270e+02 1.061107e+04
    endloop
  endfacet
  facet normal -1.000000e+00 0.000000e+00 0.000000e+00
    outer loop
      vertex 1.030319e+04 1.105310e+03 1.547208e+04
      vertex 1.030319e+04 1.477915e+03 1.050000e+04
      vertex 1.030319e+04 1.105310e+03 1.052792e+04
    endloop
  endfacet
  facet normal -1.000000e+00 0.000000e+00 0.000000e+00
    outer loop
      vertex 1.030319e+04 1.477915e+03 1.550000e+04
      vertex 1.030319e+04 1.477915e+03 1.050000e+04
      vertex 1.030319e+04 1.105310e+03 1.547208e+04
    endloop
  endfacet
  facet normal -1.000000e+00 0.000000e+00 0.000000e+00
    outer loop
      vertex 1.030319e+04 1.850521e+03 1.052792e+04
      vertex 1.030319e+04 1.477915e+03 1.050000e+04
      vertex 1.030319e+04 1.477915e+03 1.550000e+04
    endloop
  endfacet
  facet normal -1.000000e+00 0.000000e+00 0.000000e+00
    outer loop
      vertex 1.030319e+04 2.214803e+03 1.061107e+04
      vertex 1.030319e+04 3.432494e+03 1.455873e+04
      vertex 1.030319e+04 2.562625e+03 1.074758e+04
    endloop
  endfacet
  facet normal -1.000000e+00 0.000000e+00 0.000000e+00
    outer loop
      vertex 1.030319e+04 2.886215e+03 1.093440e+04
      vertex 1.030319e+04 2.562625e+03 1.074758e+04
      vertex 1.030319e+04 3.178347e+03 1.116737e+04
    endloop
  endfacet
  facet normal -1.000000e+00 0.000000e+00 0.000000e+00
    outer loop
      vertex 1.030319e+04 2.562625e+03 1.074758e+04
      vertex 1.030319e+04 3.432494e+03 1.144127e+04
      vertex 1.030319e+04 3.178347e+03 1.116737e+04
    endloop
  endfacet
  facet normal -1.000000e+00 0.000000e+00 0.000000e+00
    outer loop
      vertex 1.030319e+04 3.642979e+03 1.175000e+04
      vertex 1.030319e+04 3.432494e+03 1.144127e+04
      vertex 1.030319e+04 2.562625e+03 1.074758e+04
    endloop
  endfacet
  facet normal -1.000000e+00 0.000000e+00 0.000000e+00
    outer loop
      vertex 1.030319e+04 3.642979e+03 1.175000e+04
      vertex 1.030319e+04 2.562625e+03 1.074758e+04
      vertex 1.030319e+04 3.805100e+03 1.208665e+04
    endloop
  endfacet
  facet normal -1.000000e+00 0.000000e+00 0.000000e+00
    outer loop
      vertex 1.030319e+04 2.562625e+03 1.074758e+04
      vertex 1.030319e+04 3.915235e+03 1.244370e+04
      vertex 1.030319e+04 3.805100e+03 1.208665e+04
    endloop
  endfacet
  facet normal -1.000000e+00 0.000000e+00 0.000000e+00
    outer loop
      vertex 1.030319e+04 3.970925e+03 1.281318e+04
      vertex 1.030319e+04 3.915235e+03 1.244370e+04
      vertex 1.030319e+04 2.562625e+03 1.074758e+04
    endloop
  endfacet
  facet normal -1.000000e+00 0.000000e+00 0.000000e+00
    outer loop
      vertex 1.030319e+04 3.970925e+03 1.281318e+04
      vertex 1.030319e+04 2.562625e+03 1.074758e+04
      vertex 1.030319e+04 3.970925e+03 1.318682e+04
    endloop
  endfacet
  facet normal -1.000000e+00 0.000000e+00 0.000000e+00
    outer loop
      vertex 1.030319e+04 2.562625e+03 1.074758e+04
      vertex 1.030319e+04 3.915235e+03 1.355630e+04
      vertex 1.030319e+04 3.970925e+03 1.318682e+04
    endloop
  endfacet
  facet normal -1.000000e+00 0.000000e+00 0.000000e+00
    outer loop
      vertex 1.030319e+04 3.805100e+03 1.391335e+04
      vertex 1.030319e+04 3.915235e+03 1.355630e+04
      vertex 1.030319e+04 2.562625e+03 1.074758e+04
    endloop
  endfacet
  facet normal -1.000000e+00 0.000000e+00 0.000000e+00
    outer loop
      vertex 1.030319e+04 3.805100e+03 1.391335e+04
      vertex 1.030319e+04 2.562625e+03 1.074758e+04
      vertex 1.030319e+04 3.642979e+03 1.425000e+04
    endloop
  endfacet
  facet normal -1.000000e+00 0.000000e+00 0.000000e+00
    outer loop
      vertex 1.030319e+04 2.562625e+03 1.074758e+04
      vertex 1.030319e+04 3.432494e+03 1.455873e+04
      vertex 1.030319e+04 3.642979e+03 1.425000e+04
    endloop
  endfacet
  facet normal -1.000000e+00 0.000000e+00 0.000000e+00
    outer loop
      vertex 1.030319e+04 2.214803e+03 1.061107e+04
      vertex 1.030319e+04 3.178347e+03 1.483263e+04
      vertex 1.030319e+04 3.432494e+03 1.455873e+04
    endloop
  endfacet
  facet normal -1.000000e+00 0.000000e+00 0.000000e+00
    outer loop
      vertex 1.030319e+04 2.886215e+03 1.506560e+04
      vertex 1.030319e+04 3.178347e+03 1.483263e+04
      vertex 1.030319e+04 2.214803e+03 1.061107e+04
    endloop
  endfacet
  facet normal -1.000000e+00 0.000000e+00 0.000000e+00
    outer loop
      vertex 1.030319e+04 2.886215e+03 1.506560e+04
      vertex 1.030319e+04 2.214803e+03 1.061107e+04
      vertex 1.030319e+04 2.562625e+03 1.525242e+04
    endloop
  endfacet
  facet normal -1.000000e+00 0.000000e+00 0.000000e+00
    outer loop
      vertex 1.030319e+04 2.214803e+03 1.061107e+04
      vertex 1.030319e+04 2.214803e+03 1.538893e+04
      vertex 1.030319e+04 2.562625e+03 1.525242e+04
    endloop
  endfacet
  facet normal -1.000000e+00 0.000000e+00 0.000000e+00
    outer loop
      vertex 1.030319e+04 1.850521e+03 1.052792e+04
      vertex 1.030319e+04 2.214803e+03 1.538893e+04
      vertex 1.030319e+04 2.214803e+03 1.061107e+04
    endloop
  endfacet
  facet normal -1.000000e+00 0.000000e+00 0.000000e+00
    outer loop
      vertex 1.030319e+04 1.850521e+03 1.547208e+04
      vertex 1.030319e+04 2.214803e+03 1.538893e+04
      vertex 1.030319e+04 1.850521e+03 1.052792e+04
    endloop
  endfacet
  facet normal -1.000000e+00 0.000000e+00 0.000000e+00
    outer loop
      vertex 1.030319e+04 1.850521e+03 1.547208e+04
      vertex 1.030319e+04 1.850521e+03 1.052792e+04
      vertex 1.030319e+04 1.477915e+03 1.550000e+04
    endloop
  endfacet
  facet normal 0.000000e+00 -2.225208e-01 9.749280e-01
    outer loop
      vertex 1.030319e+04 7.410270e+02 1.538893e+04
      vertex 1.055319e+04 1.105310e+03 1.547208e+04
      vertex 1.030319e+04 1.105310e+03 1.547208e+04
    endloop
  endfacet
  facet normal 0.000000e+00 -3.653415e-01 9.308736e-01
    outer loop
      vertex 1.030319e+04 3.932060e+02 1.525242e+04
      vertex 1.055319e+04 7.410270e+02 1.538893e+04
      vertex 1.030319e+04 7.410270e+02 1.538893e+04
    endloop
  endfacet
  facet normal 0.000000e+00 -5.000008e-01 8.660249e-01
    outer loop
      vertex 1.030319e+04 6.961500e+01 1.506560e+04
      vertex 1.055319e+04 3.932060e+02 1.525242e+04
      vertex 1.030319e+04 3.932060e+02 1.525242e+04
    endloop
  endfacet
  facet normal 0.000000e+00 -6.234880e-01 7.818329e-01
    outer loop
      vertex 1.030319e+04 -2.225170e+02 1.483263e+04
      vertex 1.055319e+04 6.961500e+01 1.506560e+04
      vertex 1.030319e+04 6.961500e+01 1.506560e+04
    endloop
  endfacet
  facet normal 0.000000e+00 -7.330512e-01 6.801734e-01
    outer loop
      vertex 1.030319e+04 -4.766640e+02 1.455873e+04
      vertex 1.055319e+04 -2.225170e+02 1.483263e+04
      vertex 1.030319e+04 -2.225170e+02 1.483263e+04
    endloop
  endfacet
  facet normal 0.000000e+00 -8.262405e-01 5.633175e-01
    outer loop
      vertex 1.030319e+04 -6.871480e+02 1.425000e+04
      vertex 1.055319e+04 -4.766640e+02 1.455873e+04
      vertex 1.030319e+04 -4.766640e+02 1.455873e+04
    endloop
  endfacet
  facet normal 0.000000e+00 -7.472940e-02 9.972038e-01
    outer loop
      vertex 1.030319e+04 1.477915e+03 1.550000e+04
      vertex 1.030319e+04 1.105310e+03 1.547208e+04
      vertex 1.055319e+04 1.477915e+03 1.550000e+04
    endloop
  endfacet
  facet normal 0.000000e+00 7.472923e-02 9.972039e-01
    outer loop
      vertex 1.030319e+04 1.477915e+03 1.550000e+04
      vertex 1.055319e+04 1.477915e+03 1.550000e+04
      vertex 1.030319e+04 1.850521e+03 1.547208e+04
    endloop
  endfacet
  facet normal 0.000000e+00 -7.472940e-02 9.972038e-01
    outer loop
      vertex 1.030319e+04 1.105310e+03 1.547208e+04
      vertex 1.055319e+04 1.105310e+03 1.547208e+04
      vertex 1.055319e+04 1.477915e+03 1.550000e+04
    endloop
  endfacet
  facet normal 0.000000e+00 -2.225208e-01 9.749280e-01
    outer loop
      vertex 1.030319e+04 7.410270e+02 1.538893e+04
      vertex 1.055319e+04 7.410270e+02 1.538893e+04
      vertex 1.055319e+04 1.105310e+03 1.547208e+04
    endloop
  endfacet
  facet normal 0.000000e+00 -3.653415e-01 9.308736e-01
    outer loop
      vertex 1.030319e+04 3.932060e+02 1.525242e+04
      vertex 1.055319e+04 3.932060e+02 1.525242e+04
      vertex 1.055319e+04 7.410270e+02 1.538893e+04
    endloop
  endfacet
  facet normal 0.000000e+00 -5.000008e-01 8.660249e-01
    outer loop
      vertex 1.030319e+04 6.961500e+01 1.506560e+04
      vertex 1.055319e+04 6.961500e+01 1.506560e+04
      vertex 1.055319e+04 3.932060e+02 1.525242e+04
    endloop
  endfacet
  facet normal 0.000000e+00 -6.234880e-01 7.818329e-01
    outer loop
      vertex 1.030319e+04 -2.225170e+02 1.483263e+04
      vertex 1.055319e+04 -2.225170e+02 1.483263e+04
      vertex 1.055319e+04 6.961500e+01 1.506560e+04
    endloop
  endfacet
  facet normal 0.000000e+00 -7.330512e-01 6.801734e-01
    outer loop
      vertex 1.030319e+04 -4.766640e+02 1.455873e+04
      vertex 1.055319e+04 -4.766640e+02 1.455873e+04
      vertex 1.055319e+04 -2.225170e+02 1.483263e+04
    endloop
  endfacet
  facet normal 0.000000e+00 -8.262405e-01 5.633175e-01
    outer loop
      vertex 1.030319e+04 -6.871480e+02 1.425000e+04
      vertex 1.055319e+04 -6.871480e+02 1.425000e+04
      vertex 1.055319e+04 -4.766640e+02 1.455873e+04
    endloop
  endfacet
  facet normal 0.000000e+00 -9.009685e-01 4.338845e-01
    outer loop
      vertex 1.055319e+04 -8.492690e+02 1.391335e+04
      vertex 1.055319e+04 -6.871480e+02 1.425000e+04
      vertex 1.030319e+04 -6.871480e+02 1.425000e+04
    endloop
  endfacet
  facet normal 0.000000e+00 -9.888311e-01 1.490404e-01
    outer loop
      vertex 1.030319e+04 -1.015094e+03 1.318682e+04
      vertex 1.055319e+04 -9.594050e+02 1.355630e+04
      vertex 1.030319e+04 -9.594050e+02 1.355630e+04
    endloop
  endfacet
  facet normal 0.000000e+00 -9.555725e-01 -2.947562e-01
    outer loop
      vertex 1.030319e+04 -8.492690e+02 1.208665e+04
      vertex 1.055319e+04 -8.492690e+02 1.208665e+04
      vertex 1.030319e+04 -9.594050e+02 1.244370e+04
    endloop
  endfacet
  facet normal 0.000000e+00 -2.225208e-01 -9.749280e-01
    outer loop
      vertex 1.030319e+04 1.105310e+03 1.052792e+04
      vertex 1.055319e+04 1.105310e+03 1.052792e+04
      vertex 1.030319e+04 7.410270e+02 1.061107e+04
    endloop
  endfacet
  facet normal 0.000000e+00 -7.472940e-02 -9.972038e-01
    outer loop
      vertex 1.030319e+04 1.477915e+03 1.050000e+04
      vertex 1.055319e+04 1.477915e+03 1.050000e+04
      vertex 1.030319e+04 1.105310e+03 1.052792e+04
    endloop
  endfacet
  facet normal 0.000000e+00 7.472923e-02 -9.972039e-01
    outer loop
      vertex 1.030319e+04 1.850521e+03 1.052792e+04
      vertex 1.055319e+04 1.850521e+03 1.052792e+04
      vertex 1.030319e+04 1.477915e+03 1.050000e+04
    endloop
  endfacet
  facet normal 0.000000e+00 6.234879e-01 -7.818330e-01
    outer loop
      vertex 1.030319e+04 3.178347e+03 1.116737e+04
      vertex 1.055319e+04 3.178347e+03 1.116737e+04
      vertex 1.030319e+04 2.886215e+03 1.093440e+04
    endloop
  endfacet
  facet normal 0.000000e+00 7.330515e-01 -6.801732e-01
    outer loop
      vertex 1.030319e+04 3.432494e+03 1.144127e+04
      vertex 1.055319e+04 3.432494e+03 1.144127e+04
      vertex 1.030319e+04 3.178347e+03 1.116737e+04
    endloop
  endfacet
  facet normal 0.000000e+00 8.262393e-01 -5.633193e-01
    outer loop
      vertex 1.030319e+04 3.642979e+03 1.175000e+04
      vertex 1.055319e+04 3.642979e+03 1.175000e+04
      vertex 1.030319e+04 3.432494e+03 1.144127e+04
    endloop
  endfacet
  facet normal 0.000000e+00 9.009685e-01 -4.338846e-01
    outer loop
      vertex 1.030319e+04 3.805100e+03 1.208665e+04
      vertex 1.055319e+04 3.805100e+03 1.208665e+04
      vertex 1.030319e+04 3.642979e+03 1.175000e+04
    endloop
  endfacet
  facet normal 0.000000e+00 9.555732e-01 -2.947539e-01
    outer loop
      vertex 1.030319e+04 3.915235e+03 1.244370e+04
      vertex 1.055319e+04 3.915235e+03 1.244370e+04
      vertex 1.030319e+04 3.805100e+03 1.208665e+04
    endloop
  endfacet
  facet normal 0.000000e+00 9.888307e-01 -1.490431e-01
    outer loop
      vertex 1.030319e+04 3.970925e+03 1.281318e+04
      vertex 1.055319e+04 3.970925e+03 1.281318e+04
      vertex 1.030319e+04 3.915235e+03 1.244370e+04
    endloop
  endfacet
  facet normal 0.000000e+00 1.000000e+00 0.000000e+00
    outer loop
      vertex 1.030319e+04 3.970925e+03 1.318682e+04
      vertex 1.055319e+04 3.970925e+03 1.318682e+04
      vertex 1.030319e+04 3.970925e+03 1.281318e+04
    endloop
  endfacet
  facet normal 0.000000e+00 9.888307e-01 1.490431e-01
    outer loop
      vertex 1.030319e+04 3.915235e+03 1.355630e+04
      vertex 1.055319e+04 3.915235e+03 1.355630e+04
      vertex 1.030319e+04 3.970925e+03 1.318682e+04
    endloop
  endfacet
  facet normal 0.000000e+00 9.555732e-01 2.947539e-01
    outer loop
      vertex 1.030319e+04 3.805100e+03 1.391335e+04
      vertex 1.055319e+04 3.805100e+03 1.391335e+04
      vertex 1.030319e+04 3.915235e+03 1.355630e+04
    endloop
  endfacet
  facet normal 0.000000e+00 9.009685e-01 4.338846e-01
    outer loop
      vertex 1.030319e+04 3.642979e+03 1.425000e+04
      vertex 1.055319e+04 3.642979e+03 1.425000e+04
      vertex 1.030319e+04 3.805100e+03 1.391335e+04
    endloop
  endfacet
  facet normal 0.000000e+00 8.262393e-01 5.633193e-01
    outer loop
      vertex 1.030319e+04 3.432494e+03 1.455873e+04
      vertex 1.055319e+04 3.432494e+03 1.455873e+04
      vertex 1.030319e+04 3.642979e+03 1.425000e+04
    endloop
  endfacet
  facet normal 0.000000e+00 7.330515e-01 6.801732e-01
    outer loop
      vertex 1.030319e+04 3.178347e+03 1.483263e+04
      vertex 1.055319e+04 3.178347e+03 1.483263e+04
      vertex 1.030319e+04 3.432494e+03 1.455873e+04
    endloop
  endfacet
  facet normal 0.000000e+00 6.234879e-01 7.818330e-01
    outer loop
      vertex 1.030319e+04 2.886215e+03 1.506560e+04
      vertex 1.055319e+04 2.886215e+03 1.506560e+04
      vertex 1.030319e+04 3.178347e+03 1.483263e+04
    endloop
  endfacet
  facet normal 0.000000e+00 5.000019e-01 8.660243e-01
    outer loop
      vertex 1.030319e+04 2.562625e+03 1.525242e+04
      vertex 1.055319e+04 2.562625e+03 1.525242e+04
      vertex 1.030319e+04 2.886215e+03 1.506560e+04
    endloop
  endfacet
  facet normal 0.000000e+00 -9.555725e-01 2.947562e-01
    outer loop
      vertex 1.030319e+04 -8.492690e+02 1.391335e+04
      vertex 1.030319e+04 -9.594050e+02 1.355630e+04
      vertex 1.055319e+04 -8.492690e+02 1.391335e+04
    endloop
  endfacet
  facet normal 0.000000e+00 -9.009685e-01 4.338845e-01
    outer loop
      vertex 1.030319e+04 -8.492690e+02 1.391335e+04
      vertex 1.055319e+04 -8.492690e+02 1.391335e+04
      vertex 1.030319e+04 -6.871480e+02 1.425000e+04
    endloop
  endfacet
  facet normal 0.000000e+00 -9.555725e-01 2.947562e-01
    outer loop
      vertex 1.030319e+04 -9.594050e+02 1.355630e+04
      vertex 1.055319e+04 -9.594050e+02 1.355630e+04
      vertex 1.055319e+04 -8.492690e+02 1.391335e+04
    endloop
  endfacet
  facet normal 0.000000e+00 -9.888311e-01 1.490404e-01
    outer loop
      vertex 1.030319e+04 -1.015094e+03 1.318682e+04
      vertex 1.055319e+04 -1.015094e+03 1.318682e+04
      vertex 1.055319e+04 -9.594050e+02 1.355630e+04
    endloop
  endfacet
  facet normal 0.000000e+00 -1.000000e+00 0.000000e+00
    outer loop
      vertex 1.055319e+04 -1.015094e+03 1.281318e+04
      vertex 1.055319e+04 -1.015094e+03 1.318682e+04
      vertex 1.030319e+04 -1.015094e+03 1.318682e+04
    endloop
  endfacet
  facet normal 0.000000e+00 -1.000000e+00 0.000000e+00
    outer loop
      vertex 1.055319e+04 -1.015094e+03 1.281318e+04
      vertex 1.030319e+04 -1.015094e+03 1.318682e+04
      vertex 1.030319e+04 -1.015094e+03 1.281318e+04
    endloop
  endfacet
  facet normal 0.000000e+00 -9.888311e-01 -1.490404e-01
    outer loop
      vertex 1.055319e+04 -1.015094e+03 1.281318e+04
      vertex 1.030319e+04 -1.015094e+03 1.281318e+04
      vertex 1.030319e+04 -9.594050e+02 1.244370e+04
    endloop
  endfacet
  facet normal 0.000000e+00 -9.888311e-01 -1.490404e-01
    outer loop
      vertex 1.055319e+04 -1.015094e+03 1.281318e+04
      vertex 1.030319e+04 -9.594050e+02 1.244370e+04
      vertex 1.055319e+04 -9.594050e+02 1.244370e+04
    endloop
  endfacet
  facet normal 0.000000e+00 -9.555725e-01 -2.947562e-01
    outer loop
      vertex 1.030319e+04 -9.594050e+02 1.244370e+04
      vertex 1.055319e+04 -8.492690e+02 1.208665e+04
      vertex 1.055319e+04 -9.594050e+02 1.244370e+04
    endloop
  endfacet
  facet normal 0.000000e+00 -9.009685e-01 -4.338845e-01
    outer loop
      vertex 1.030319e+04 -8.492690e+02 1.208665e+04
      vertex 1.055319e+04 -6.871480e+02 1.175000e+04
      vertex 1.055319e+04 -8.492690e+02 1.208665e+04
    endloop
  endfacet
  facet normal 0.000000e+00 -9.009685e-01 -4.338845e-01
    outer loop
      vertex 1.030319e+04 -6.871480e+02 1.175000e+04
      vertex 1.055319e+04 -6.871480e+02 1.175000e+04
      vertex 1.030319e+04 -8.492690e+02 1.208665e+04
    endloop
  endfacet
  facet normal 0.000000e+00 -8.262405e-01 -5.633175e-01
    outer loop
      vertex 1.030319e+04 -4.766640e+02 1.144127e+04
      vertex 1.055319e+04 -6.871480e+02 1.175000e+04
      vertex 1.030319e+04 -6.871480e+02 1.175000e+04
    endloop
  endfacet
  facet normal 0.000000e+00 -8.262405e-01 -5.633175e-01
    outer loop
      vertex 1.055319e+04 -4.766640e+02 1.144127e+04
      vertex 1.055319e+04 -6.871480e+02 1.175000e+04
      vertex 1.030319e+04 -4.766640e+02 1.144127e+04
    endloop
  endfacet
  facet normal 0.000000e+00 -7.330512e-01 -6.801734e-01
    outer loop
      vertex 1.055319e+04 -4.766640e+02 1.144127e+04
      vertex 1.030319e+04 -4.766640e+02 1.144127e+04
      vertex 1.030319e+04 -2.225170e+02 1.116737e+04
    endloop
  endfacet
  facet normal 0.000000e+00 -7.330512e-01 -6.801734e-01
    outer loop
      vertex 1.055319e+04 -4.766640e+02 1.144127e+04
      vertex 1.030319e+04 -2.225170e+02 1.116737e+04
      vertex 1.055319e+04 -2.225170e+02 1.116737e+04
    endloop
  endfacet
  facet normal 0.000000e+00 -6.234880e-01 -7.818329e-01
    outer loop
      vertex 1.030319e+04 -2.225170e+02 1.116737e+04
      vertex 1.055319e+04 6.961500e+01 1.093440e+04
      vertex 1.055319e+04 -2.225170e+02 1.116737e+04
    endloop
  endfacet
  facet normal 0.000000e+00 -6.234880e-01 -7.818329e-01
    outer loop
      vertex 1.030319e+04 6.961500e+01 1.093440e+04
      vertex 1.055319e+04 6.961500e+01 1.093440e+04
      vertex 1.030319e+04 -2.225170e+02 1.116737e+04
    endloop
  endfacet
  facet normal 0.000000e+00 -5.000008e-01 -8.660249e-01
    outer loop
      vertex 1.030319e+04 3.932060e+02 1.074758e+04
      vertex 1.055319e+04 6.961500e+01 1.093440e+04
      vertex 1.030319e+04 6.961500e+01 1.093440e+04
    endloop
  endfacet
  facet normal 0.000000e+00 -5.000008e-01 -8.660249e-01
    outer loop
      vertex 1.055319e+04 3.932060e+02 1.074758e+04
      vertex 1.055319e+04 6.961500e+01 1.093440e+04
      vertex 1.030319e+04 3.932060e+02 1.074758e+04
    endloop
  endfacet
  facet normal 0.000000e+00 -3.653415e-01 -9.308736e-01
    outer loop
      vertex 1.055319e+04 3.932060e+02 1.074758e+04
      vertex 1.030319e+04 3.932060e+02 1.074758e+04
      vertex 1.030319e+04 7.410270e+02 1.061107e+04
    endloop
  endfacet
  facet normal 0.000000e+00 -3.653415e-01 -9.308736e-01
    outer loop
      vertex 1.055319e+04 3.932060e+02 1.074758e+04
      vertex 1.030319e+04 7.410270e+02 1.061107e+04
      vertex 1.055319e+04 7.410270e+02 1.061107e+04
    endloop
  endfacet
  facet normal 0.000000e+00 -2.225208e-01 -9.749280e-01
    outer loop
      vertex 1.030319e+04 7.410270e+02 1.061107e+04
      vertex 1.055319e+04 1.105310e+03 1.052792e+04
      vertex 1.055319e+04 7.410270e+02 1.061107e+04
    endloop
  endfacet
  facet normal 0.000000e+00 -7.472940e-02 -9.972038e-01
    outer loop
      vertex 1.030319e+04 1.105310e+03 1.052792e+04
      vertex 1.055319e+04 1.477915e+03 1.050000e+04
      vertex 1.055319e+04 1.105310e+03 1.052792e+04
    endloop
  endfacet
  facet normal 0.000000e+00 7.472923e-02 -9.972039e-01
    outer loop
      vertex 1.030319e+04 1.477915e+03 1.050000e+04
      vertex 1.055319e+04 1.850521e+03 1.052792e+04
      vertex 1.055319e+04 1.477915e+03 1.050000e+04
    endloop
  endfacet
  facet normal 0.000000e+00 2.225213e-01 -9.749278e-01
    outer loop
      vertex 1.030319e+04 1.850521e+03 1.052792e+04
      vertex 1.055319e+04 2.214803e+03 1.061107e+04
      vertex 1.055319e+04 1.850521e+03 1.052792e+04
    endloop
  endfacet
  facet normal 0.000000e+00 2.225213e-01 -9.749278e-01
    outer loop
      vertex 1.030319e+04 2.214803e+03 1.061107e+04
      vertex 1.055319e+04 2.214803e+03 1.061107e+04
      vertex 1.030319e+04 1.850521e+03 1.052792e+04
    endloop
  endfacet
  facet normal 0.000000e+00 3.653407e-01 -9.308739e-01
    outer loop
      vertex 1.055319e+04 2.562625e+03 1.074758e+04
      vertex 1.055319e+04 2.214803e+03 1.061107e+04
      vertex 1.030319e+04 2.214803e+03 1.061107e+04
    endloop
  endfacet
  facet normal 0.000000e+00 3.653407e-01 -9.308739e-01
    outer loop
      vertex 1.055319e+04 2.562625e+03 1.074758e+04
      vertex 1.030319e+04 2.214803e+03 1.061107e+04
      vertex 1.030319e+04 2.562625e+03 1.074758e+04
    endloop
  endfacet
  facet normal 0.000000e+00 5.000019e-01 -8.660243e-01
    outer loop
      vertex 1.055319e+04 2.562625e+03 1.074758e+04
      vertex 1.030319e+04 2.562625e+03 1.074758e+04
      vertex 1.030319e+04 2.886215e+03 1.093440e+04
    endloop
  endfacet
  facet normal 0.000000e+00 5.000019e-01 -8.660243e-01
    outer loop
      vertex 1.055319e+04 2.562625e+03 1.074758e+04
      vertex 1.030319e+04 2.886215e+03 1.093440e+04
      vertex 1.055319e+04 2.886215e+03 1.093440e+04
    endloop
  endfacet
  facet normal 0.000000e+00 6.234879e-01 -7.818330e-01
    outer loop
      vertex 1.030319e+04 2.886215e+03 1.093440e+04
      vertex 1.055319e+04 3.178347e+03 1.116737e+04
      vertex 1.055319e+04 2.886215e+03 1.093440e+04
    endloop
  endfacet
  facet normal 0.000000e+00 7.330515e-01 -6.801732e-01
    outer loop
      vertex 1.030319e+04 3.178347e+03 1.116737e+04
      vertex 1.055319e+04 3.432494e+03 1.144127e+04
      vertex 1.055319e+04 3.178347e+03 1.116737e+04
    endloop
  endfacet
  facet normal 0.000000e+00 8.262393e-01 -5.633193e-01
    outer loop
      vertex 1.030319e+04 3.432494e+03 1.144127e+04
      vertex 1.055319e+04 3.642979e+03 1.175000e+04
      vertex 1.055319e+04 3.432494e+03 1.144127e+04
    endloop
  endfacet
  facet normal 0.000000e+00 9.009685e-01 -4.338846e-01
    outer loop
      vertex 1.030319e+04 3.642979e+03 1.175000e+04
      vertex 1.055319e+04 3.805100e+03 1.208665e+04
      vertex 1.055319e+04 3.642979e+03 1.175000e+04
    endloop
  endfacet
  facet normal 0.000000e+00 9.555732e-01 -2.947539e-01
    outer loop
      vertex 1.030319e+04 3.805100e+03 1.208665e+04
      vertex 1.055319e+04 3.915235e+03 1.244370e+04
      vertex 1.055319e+04 3.805100e+03 1.208665e+04
    endloop
  endfacet
  facet normal 0.000000e+00 9.888307e-01 -1.490431e-01
    outer loop
      vertex 1.030319e+04 3.915235e+03 1.244370e+04
      vertex 1.055319e+04 3.970925e+03 1.281318e+04
      vertex 1.055319e+04 3.915235e+03 1.244370e+04
    endloop
  endfacet
  facet normal 0.000000e+00 1.000000e+00 0.000000e+00
    outer loop
      vertex 1.030319e+04 3.970925e+03 1.281318e+04
      vertex 1.055319e+04 3.970925e+03 1.318682e+04
      vertex 1.055319e+04 3.970925e+03 1.281318e+04
    endloop
  endfacet
  facet normal 0.000000e+00 9.888307e-01 1.490431e-01
    outer loop
      vertex 1.030319e+04 3.970925e+03 1.318682e+04
      vertex 1.055319e+04 3.915235e+03 1.355630e+04
      vertex 1.055319e+04 3.970925e+03 1.318682e+04
    endloop
  endfacet
  facet normal 0.000000e+00 9.555732e-01 2.947539e-01
    outer loop
      vertex 1.030319e+04 3.915235e+03 1.355630e+04
      vertex 1.055319e+04 3.805100e+03 1.391335e+04
      vertex 1.055319e+04 3.915235e+03 1.355630e+04
    endloop
  endfacet
  facet normal 0.000000e+00 9.009685e-01 4.338846e-01
    outer loop
      vertex 1.030319e+04 3.805100e+03 1.391335e+04
      vertex 1.055319e+04 3.642979e+03 1.425000e+04
      vertex 1.055319e+04 3.805100e+03 1.391335e+04
    endloop
  endfacet
  facet normal 0.000000e+00 8.262393e-01 5.633193e-01
    outer loop
      vertex 1.030319e+04 3.642979e+03 1.425000e+04
      vertex 1.055319e+04 3.432494e+03 1.455873e+04
      vertex 1.055319e+04 3.642979e+03 1.425000e+04
    endloop
  endfacet
  facet normal 0.000000e+00 7.330515e-01 6.801732e-01
    outer loop
      vertex 1.030319e+04 3.432494e+03 1.455873e+04
      vertex 1.055319e+04 3.178347e+03 1.483263e+04
      vertex 1.055319e+04 3.432494e+03 1.455873e+04
    endloop
  endfacet
  facet normal 0.000000e+00 6.234879e-01 7.818330e-01
    outer loop
      vertex 1.030319e+04 3.178347e+03 1.483263e+04
      vertex 1.055319e+04 2.886215e+03 1.506560e+04
      vertex 1.055319e+04 3.178347e+03 1.483263e+04
    endloop
  endfacet
  facet normal 0.000000e+00 5.000019e-01 8.660243e-01
    outer loop
      vertex 1.030319e+04 2.886215e+03 1.506560e+04
      vertex 1.055319e+04 2.562625e+03 1.525242e+04
      vertex 1.055319e+04 2.886215e+03 1.506560e+04
    endloop
  endfacet
  facet normal 0.000000e+00 3.653407e-01 9.308739e-01
    outer loop
      vertex 1.030319e+04 2.562625e+03 1.525242e+04
      vertex 1.055319e+04 2.214803e+03 1.538893e+04
      vertex 1.055319e+04 2.562625e+03 1.525242e+04
    endloop
  endfacet
  facet normal 0.000000e+00 3.653407e-01 9.308739e-01
    outer loop
      vertex 1.030319e+04 2.214803e+03 1.538893e+04
      vertex 1.055319e+04 2.214803e+03 1.538893e+04
      vertex 1.030319e+04 2.562625e+03 1.525242e+04
    endloop
  endfacet
  facet normal 0.000000e+00 2.225213e-01 9.749278e-01
    outer loop
      vertex 1.055319e+04 1.850521e+03 1.547208e+04
      vertex 1.055319e+04 2.214803e+03 1.538893e+04
      vertex 1.030319e+04 2.214803e+03 1.538893e+04
    endloop
  endfacet
  facet normal 0.000000e+00 2.225213e-01 9.749278e-01
    outer loop
      vertex 1.055319e+04 1.850521e+03 1.547208e+04
      vertex 1.030319e+04 2.214803e+03 1.538893e+04
      vertex 1.030319e+04 1.850521e+03 1.547208e+04
    endloop
  endfacet
  facet normal 0.000000e+00 7.472923e-02 9.972039e-01
    outer loop
      vertex 1.055319e+04 1.850521e+03 1.547208e+04
      vertex 1.030319e+04 1.850521e+03 1.547208e+04
      vertex 1.055319e+04 1.477915e+03 1.550000e+04
    endloop
  endfacet
endsolid I
